<?xml version="1.0" standalone="no"?>
<!DOCTYPE svg PUBLIC "-//W3C//DTD SVG 20010904//EN"
 "http://www.w3.org/TR/2001/REC-SVG-20010904/DTD/svg10.dtd">
<svg version="1.0" xmlns="http://www.w3.org/2000/svg"
 width="21.000000pt" height="21.000000pt" viewBox="0 0 512.000000 512.000000"
 preserveAspectRatio="xMidYMid meet">
<metadata>
Created by potrace 1.14, written by Peter Selinger 2001-2017
</metadata>
<g transform="translate(0.000000,512.000000) scale(0.100000,-0.100000)"
fill="#a2a2a2" stroke="none">
<path d="M3891 4449 c-13 -5 -35 -18 -50 -29 -16 -10 -421 -600 -902 -1309
l-874 -1290 -410 409 c-225 224 -423 415 -440 423 -50 25 -106 29 -160 13 -43
-13 -72 -38 -237 -203 -160 -160 -190 -195 -204 -236 -19 -56 -14 -109 16
-165 10 -21 310 -328 667 -683 607 -605 652 -647 713 -674 44 -20 87 -30 133
-33 60 -4 75 -1 130 26 34 17 79 48 99 69 34 36 2111 3091 2141 3150 39 77 27
169 -32 233 -38 41 -373 273 -428 297 -37 15 -126 16 -162 2z"/>
</g>
</svg>
